<svg xmlns="http://www.w3.org/2000/svg" xmlns:xlink="http://www.w3.org/1999/xlink" viewBox="0 0 1000 1000"><defs><style>.cls-1,.cls-16{fill:none;}.cls-2{fill:#fcfcfc;}.cls-3{fill:url(#radial-gradient);}.cls-4{fill:url(#radial-gradient-2);}.cls-5{font-size:52.68px;font-family:Geometric415BT-BlackA, Geometr415 Blk BT;font-weight:800;letter-spacing:-0.13em;}.cls-6{letter-spacing:0em;}.cls-7{font-size:27px;font-family:NewsGothicBT-Bold, NewsGoth BT;font-weight:700;}.cls-8{fill:url(#radial-gradient-3);}.cls-9{fill:url(#radial-gradient-4);}.cls-10{fill:url(#radial-gradient-5);}.cls-11{fill:url(#radial-gradient-6);}.cls-12{fill:url(#radial-gradient-7);}.cls-13{fill:url(#radial-gradient-8);}.cls-14{fill:url(#radial-gradient-9);}.cls-15{clip-path:url(#clip-path);}.cls-16{stroke-miterlimit:10;stroke-width:3px;stroke:url(#Degradado_sin_nombre_111);}</style><radialGradient id="radial-gradient" cx="532.7" cy="416.76" r="186.57" gradientUnits="userSpaceOnUse"><stop offset="0" stop-color="#c72f0e"/><stop offset="0.23" stop-color="#c12f0d"/><stop offset="0.53" stop-color="#b2300a"/><stop offset="0.87" stop-color="#983205"/><stop offset="1" stop-color="#8b3303"/></radialGradient><radialGradient id="radial-gradient-2" cx="510.57" cy="420.84" r="27.72" xlink:href="#radial-gradient"/><radialGradient id="radial-gradient-3" cx="637.22" cy="675.19" r="19.16" xlink:href="#radial-gradient"/><radialGradient id="radial-gradient-4" cx="668.73" cy="682.83" r="11.95" xlink:href="#radial-gradient"/><radialGradient id="radial-gradient-5" cx="695.66" cy="682.83" r="12.55" xlink:href="#radial-gradient"/><radialGradient id="radial-gradient-6" cx="724.59" cy="676.06" r="16.24" xlink:href="#radial-gradient"/><radialGradient id="radial-gradient-7" cx="753.58" cy="682.83" r="12.37" xlink:href="#radial-gradient"/><radialGradient id="radial-gradient-8" cx="789.56" cy="682.51" r="15.98" xlink:href="#radial-gradient"/><radialGradient id="radial-gradient-9" cx="823.62" cy="688.44" r="14.86" xlink:href="#radial-gradient"/><clipPath id="clip-path"><rect class="cls-1" x="-13.17" y="1110.09" width="1027.32" height="793.8"/></clipPath><linearGradient id="Degradado_sin_nombre_111" x1="-128.24" y1="1460.85" x2="286.99" y2="1460.85" gradientUnits="userSpaceOnUse"><stop offset="0" stop-color="#906f3e"/><stop offset="0.32" stop-color="#f7f190"/><stop offset="0.73" stop-color="#b68f4c"/><stop offset="0.9" stop-color="#b68f4c"/><stop offset="1" stop-color="#dead6a"/></linearGradient></defs><g id="color1"><path class="cls-2" d="M312,376.88l285.06-163c45-25.73,98.25,3.27,95,51.72l-20,297.32c-3.14,46.87-57.21,77.75-99,56.57L308,485.17C264.79,463.27,267.05,402.59,312,376.88Z"/><path d="M452.27,299.36l-101.46,204L313.1,483.87c-42.78-22.1-40.65-82.43,3.79-107.66Z"/><path class="cls-3" d="M598.59,216.3,483.05,281.9,528,362.23,514.09,390l-41.65-75.79L372.6,514.61,413,535.49l40.16-78,27.34-.35-45.36,89.77,140.42,72.56c41.41,21.4,94.83-8.91,97.86-55.5l.19-2.88H581.13L522.88,457.16h27.79L598,540.88h55L566.3,389.52,620,280.31l-50.68-.58-36.95,73.92L516.8,329.57l34.47-70.07H658.69L595,386.9l80.57,144.17,17.08-262.6C695.8,220.3,643.06,191.06,598.59,216.3Zm-66,197v1a6.07,6.07,0,0,0-3.45,1.49,12.29,12.29,0,0,0-2.44,2.94c-.65,1.09-1.91,3.51-3.78,7.23-.52,1-1,2-1.55,3s-1,1.79-1.37,2.59l3.06,3.33a39.8,39.8,0,0,0,3.56,3.45,15.75,15.75,0,0,0,3.47,2.28,8.07,8.07,0,0,0,3.6.89,6.86,6.86,0,0,0,2.64-.46,14.89,14.89,0,0,0,2.38-1.36l.57.43a14,14,0,0,1-4.86,5.46,13.18,13.18,0,0,1-7.45,2,17.35,17.35,0,0,1-5.92-.9,14.06,14.06,0,0,1-4.11-2.27,35.06,35.06,0,0,1-3.52-3.51,48.55,48.55,0,0,1-4.62,3.84,15.58,15.58,0,0,1-4.48,2.08,22.73,22.73,0,0,1-6.34.76,19.24,19.24,0,0,1-8.28-1.54,13,13,0,0,1-4.91-3.75,12.72,12.72,0,0,1-2.27-4.43,14.84,14.84,0,0,1-.61-3.9q0-5.9,3.36-9.28a36.4,36.4,0,0,1,8.05-6,28.48,28.48,0,0,1-4.63-5.75,12.3,12.3,0,0,1-2-6.5,12.05,12.05,0,0,1,1.32-5.09,11.93,11.93,0,0,1,5-5q3.71-2.18,10.33-2.18a17,17,0,0,1,8.3,1.71,9.24,9.24,0,0,1,4.08,3.89,9.48,9.48,0,0,1,1,4,9.1,9.1,0,0,1-2.84,6.5,29.5,29.5,0,0,1-8.18,5.46q2.16,2.11,5.91,6.31t6.1,7a36.29,36.29,0,0,0,2.09-4.73,13.38,13.38,0,0,0,.69-4.31,6,6,0,0,0-1.33-4.13,4.42,4.42,0,0,0-3.26-1.56v-1Z"/><path class="cls-4" d="M539.25,440.06a14,14,0,0,1-4.86,5.46,13.18,13.18,0,0,1-7.45,2,17.35,17.35,0,0,1-5.92-.9,14.06,14.06,0,0,1-4.11-2.27,35.06,35.06,0,0,1-3.52-3.51,48.55,48.55,0,0,1-4.62,3.84,15.58,15.58,0,0,1-4.48,2.08,22.73,22.73,0,0,1-6.34.76,19.24,19.24,0,0,1-8.28-1.54,13,13,0,0,1-4.91-3.75,12.72,12.72,0,0,1-2.27-4.43,14.84,14.84,0,0,1-.61-3.9q0-5.9,3.36-9.28a36.4,36.4,0,0,1,8.05-6,28.48,28.48,0,0,1-4.63-5.75,12.3,12.3,0,0,1-2-6.5,12.05,12.05,0,0,1,1.32-5.09,11.93,11.93,0,0,1,5-5q3.71-2.18,10.33-2.18a17,17,0,0,1,8.3,1.71,9.24,9.24,0,0,1,4.08,3.89,9.48,9.48,0,0,1,1,4,9.1,9.1,0,0,1-2.84,6.5,29.5,29.5,0,0,1-8.18,5.46q2.16,2.11,5.91,6.31t6.1,7a36.29,36.29,0,0,0,2.09-4.73,13.38,13.38,0,0,0,.69-4.31,6,6,0,0,0-1.33-4.13,4.42,4.42,0,0,0-3.26-1.56v-1h16.61v1a6.07,6.07,0,0,0-3.45,1.49,12.29,12.29,0,0,0-2.44,2.94c-.65,1.09-1.91,3.51-3.78,7.23-.52,1-1,2-1.55,3s-1,1.79-1.37,2.59l3.06,3.33a39.8,39.8,0,0,0,3.56,3.45,15.75,15.75,0,0,0,3.47,2.28,8.07,8.07,0,0,0,3.6.89,6.86,6.86,0,0,0,2.64-.46,14.89,14.89,0,0,0,2.38-1.36Z"/><polygon points="435.15 546.93 427.99 561.1 322.09 561.1 350.81 503.36 372.6 514.61 359.52 540.87 410.25 540.87 413.01 535.49 435.15 546.93"/><polygon points="483.05 281.9 452.27 299.36 471.36 260.98 483.05 281.9"/><polygon points="692.36 561.11 673.62 561.11 675.58 531.09 692.36 561.11"/><path d="M538.68,439.63A14.89,14.89,0,0,1,536.3,441a6.86,6.86,0,0,1-2.64.46,8.07,8.07,0,0,1-3.6-.89,15.75,15.75,0,0,1-3.47-2.28,39.8,39.8,0,0,1-3.56-3.45L520,431.5c.41-.8.85-1.65,1.37-2.59s1-1.93,1.55-3c1.87-3.72,3.13-6.14,3.78-7.23a12.29,12.29,0,0,1,2.44-2.94,6.07,6.07,0,0,1,3.45-1.49v-1H516v1a4.42,4.42,0,0,1,3.26,1.56,6,6,0,0,1,1.33,4.13,13.38,13.38,0,0,1-.69,4.31,36.29,36.29,0,0,1-2.09,4.73q-2.34-2.85-6.1-7t-5.91-6.31a29.5,29.5,0,0,0,8.18-5.46,9.1,9.1,0,0,0,2.84-6.5,9.48,9.48,0,0,0-1-4,9.24,9.24,0,0,0-4.08-3.89,17,17,0,0,0-8.3-1.71q-6.62,0-10.33,2.18a11.93,11.93,0,0,0-5,5,12.05,12.05,0,0,0-1.32,5.09,12.3,12.3,0,0,0,2,6.5,28.48,28.48,0,0,0,4.63,5.75,36.4,36.4,0,0,0-8.05,6q-3.36,3.38-3.36,9.28a14.84,14.84,0,0,0,.61,3.9,12.72,12.72,0,0,0,2.27,4.43,13,13,0,0,0,4.91,3.75,19.24,19.24,0,0,0,8.28,1.54,22.73,22.73,0,0,0,6.34-.76,15.58,15.58,0,0,0,4.48-2.08,48.55,48.55,0,0,0,4.62-3.84,35.06,35.06,0,0,0,3.52,3.51,14.06,14.06,0,0,0,4.11,2.27,17.35,17.35,0,0,0,5.92.9,13.18,13.18,0,0,0,7.45-2,14,14,0,0,0,4.86-5.46Zm-41.33-41a5,5,0,0,1,3.45-1.36,4.79,4.79,0,0,1,4.2,2.09,11.48,11.48,0,0,1,1.9,4.35,20,20,0,0,1,.44,3.28q0,3.65-4.26,6a65.72,65.72,0,0,1-5.64-6.44,7.61,7.61,0,0,1-1.58-4.45A4.51,4.51,0,0,1,497.35,398.6Zm6,43.17a9.1,9.1,0,0,1-5.9-2.21,15.24,15.24,0,0,1-4.2-5.33,13.43,13.43,0,0,1-1.5-5.73c0-2.63,1.4-4.91,4.17-6.86,2.27,2.19,4.94,4.92,8,8.22s5.44,6.06,7.15,8.32A10.84,10.84,0,0,1,503.36,441.77Z"/><text class="cls-5" transform="translate(245.5 694.42)">T<tspan class="cls-6" x="25.57" y="0">ransformation </tspan></text><text class="cls-7" transform="translate(584.69 722)">Empowering minds</text><path class="cls-8" d="M618.13,694.42l19-38.46h.57l18.59,38.46H647L644.62,689H629.5l-2.42,5.43Zm13.94-11.86h9.8L637,670.88Z"/><path class="cls-9" d="M679.19,693.1a18.34,18.34,0,0,1-4.2,1.79,15.59,15.59,0,0,1-4.26.58,13.38,13.38,0,0,1-9.5-3.47,11.53,11.53,0,0,1-3.72-8.8,12.16,12.16,0,0,1,4-9.27,14.12,14.12,0,0,1,10-3.74,18.36,18.36,0,0,1,4.32.5,17.73,17.73,0,0,1,4.06,1.5l-.9,7.2a19.35,19.35,0,0,0-3.67-1.76,10.15,10.15,0,0,0-3.27-.6,6.41,6.41,0,0,0-4.53,1.66,5.37,5.37,0,0,0-1.8,4.13,5.57,5.57,0,0,0,1.67,4.21,6.08,6.08,0,0,0,4.4,1.6,10.37,10.37,0,0,0,3.62-.73,25.25,25.25,0,0,0,4.48-2.38Z"/><path class="cls-10" d="M707.64,671.24v14.48c0,1.82,0,3.35.11,4.58s.17,2.29.3,3.16l-7.48,2.06-.72-2.21a12.11,12.11,0,0,1-3,1.67,8.71,8.71,0,0,1-3,.54,9.51,9.51,0,0,1-7.52-3.57,13.21,13.21,0,0,1-3-8.9,13,13,0,0,1,3.42-9.26,11.32,11.32,0,0,1,8.64-3.66,10.3,10.3,0,0,1,2.52.34,19.07,19.07,0,0,1,2.91,1Zm-8.07,5.89a6.15,6.15,0,0,0-1.38-.59,4.91,4.91,0,0,0-1.3-.18,4.82,4.82,0,0,0-3.86,1.92,7.37,7.37,0,0,0-1.57,4.82,7.28,7.28,0,0,0,1.38,4.54,4.1,4.1,0,0,0,3.36,1.81,3.62,3.62,0,0,0,1.63-.42,7.55,7.55,0,0,0,1.74-1.3Z"/><path class="cls-11" d="M736.79,656.6v37.82l-7.08,1.1-.31-1.8a15.3,15.3,0,0,1-3.34,1.37,13,13,0,0,1-3.34.43,9.43,9.43,0,0,1-7.59-3.21c-1.82-2.15-2.73-5.11-2.73-8.9q0-6,3.2-9.57a10.8,10.8,0,0,1,8.48-3.6,11.48,11.48,0,0,1,2.37.24,11.35,11.35,0,0,1,2.26.76V657.71Zm-8.08,20.53a6.15,6.15,0,0,0-1.38-.59,4.81,4.81,0,0,0-5.15,1.74,8.2,8.2,0,0,0-.2,9.36,4.1,4.1,0,0,0,3.36,1.81,4.56,4.56,0,0,0,1.61-.32,7.77,7.77,0,0,0,1.76-1Z"/><path class="cls-12" d="M764.57,686.13l-.9,7.13a23.37,23.37,0,0,1-4.66,1.67,20.13,20.13,0,0,1-4.63.54,13.1,13.1,0,0,1-9.34-3.33,11.37,11.37,0,0,1-3.55-8.68,12.76,12.76,0,0,1,3.89-9.43,12.92,12.92,0,0,1,9.44-3.84,11.06,11.06,0,0,1,7.8,2.81,9.46,9.46,0,0,1,3,7.3c0,.46,0,1.2-.1,2.21l0,.15-.72,1.06-15.82.43a5.25,5.25,0,0,0,2,3.8,6.8,6.8,0,0,0,4.47,1.45,12.85,12.85,0,0,0,4.24-.82A25.14,25.14,0,0,0,764.57,686.13Zm-15.39-5.48,10.06-.3V680a3.89,3.89,0,0,0-1.28-3,4.65,4.65,0,0,0-3.25-1.17,5.38,5.38,0,0,0-3.65,1.27A6,6,0,0,0,749.18,680.65Z"/><path class="cls-13" d="M793.58,694.42h-8.05V681.14a4.24,4.24,0,0,0-.76-2.72,2.58,2.58,0,0,0-2.15-1,3.72,3.72,0,0,0-3.1,1.45,6.57,6.57,0,0,0-1.11,4.09v11.42h-8.06V671.24h7.49v3.89a14.67,14.67,0,0,1,4-3.45,8.76,8.76,0,0,1,4.29-1.08,7.72,7.72,0,0,1,4.2,1,8.22,8.22,0,0,1,2.82,3.37,12.18,12.18,0,0,1,3.71-3.32,9.08,9.08,0,0,1,4.39-1.1q3.85,0,5.7,2.17c1.22,1.45,1.84,3.69,1.84,6.73v14.92h-8V681.14a4.3,4.3,0,0,0-.76-2.72,2.58,2.58,0,0,0-2.15-1,3.69,3.69,0,0,0-3.11,1.45,6.57,6.57,0,0,0-1.11,4.09Z"/><path class="cls-14" d="M819.87,694.42l-8.34-23.18h8.7l3.73,12,4.6-12h7.15l-14.53,34.39h-8.69a28.87,28.87,0,0,0,3.61-4.18,29.85,29.85,0,0,0,2.87-5Z"/></g><g id="certificate"><g class="cls-15"><path class="cls-16" d="M48.28,938.84,278.51,1426.5c13.9,38.52,6.64,83.2-18.32,112.83l-386.93,459.3v-1078Z"/></g></g></svg>